<?xml version="1.0" encoding="UTF-8"?>
<svg width="32px" height="32px" viewBox="0 0 32 32" version="1.1" xmlns="http://www.w3.org/2000/svg" xmlns:xlink="http://www.w3.org/1999/xlink">
    <title>arrow-left</title>
    <g id="arrow-left" stroke="none" stroke-width="1" fill="none" fill-rule="evenodd">
        <g id="keyboard-arrow-right" transform="translate(16.386364, 15.994818) rotate(180.000000) translate(-16.386364, -15.994818) translate(4.227273, 6.858455)" fill="#000000" fill-rule="nonzero">
            <path d="M14.8282648,0.146446609 C15.0235269,-0.0488155365 15.3401094,-0.0488155365 15.5353716,0.146446609 L15.5353716,0.146446609 L24.1717352,8.78281025 C24.1766942,8.78776928 24.1815273,8.79280657 24.1862345,8.79791814 C24.1960739,8.80859182 24.2058644,8.82021854 24.2151177,8.83227911 C24.2245591,8.8445343 24.2331783,8.85690542 24.2411748,8.86955712 C24.2484143,8.8810791 24.2553605,8.89313485 24.2618054,8.90549359 C24.2682926,8.9178932 24.2741331,8.93037038 24.2794305,8.94302114 C24.2858587,8.95834428 24.2915425,8.97403894 24.2964417,8.99007602 C24.2997784,9.00113676 24.3027458,9.01223733 24.3053251,9.02340934 C24.3137202,9.0594361 24.3181818,9.09737883 24.3181818,9.13636364 L24.314242,9.07353246 C24.3159684,9.08724024 24.3171275,9.10100584 24.3177191,9.11479126 L24.3181818,9.13636364 C24.3181818,9.14420472 24.3180013,9.15200364 24.3176443,9.15975648 C24.3170175,9.17297695 24.3158984,9.18599292 24.3142718,9.19895738 C24.3121622,9.21613947 24.3091103,9.23322445 24.3052153,9.24998602 C24.3024783,9.26162964 24.2992105,9.27369295 24.2954838,9.28564401 C24.290927,9.30026794 24.285942,9.31398123 24.2803896,9.3274002 C24.2748967,9.3407599 24.2684688,9.35456935 24.2613769,9.36812183 C24.2548885,9.38041031 24.2481625,9.3920461 24.2409938,9.40337396 C24.221716,9.43395721 24.1985695,9.46308276 24.1717352,9.48991703 L24.2165991,9.43850755 C24.2062616,9.45211787 24.1952426,9.46518232 24.1835931,9.47765007 L24.1717352,9.48991703 L15.5353716,18.1262807 C15.3401094,18.3215428 15.0235269,18.3215428 14.8282648,18.1262807 C14.6330026,17.9310185 14.6330026,17.614436 14.8282648,17.4191739 L14.8282648,17.4191739 L22.611,9.636 L0.5,9.63636364 C0.254540111,9.63636364 0.0503916296,9.45948848 0.00805566941,9.22623927 L0,9.13636364 C0,8.86022126 0.223857625,8.63636364 0.5,8.63636364 L0.5,8.63636364 L22.611,8.636 L14.8282648,0.853553391 C14.6546984,0.679987039 14.6354133,0.410562638 14.7704093,0.215694497 Z" id="Combined-Shape"></path>
        </g>
    </g>
</svg>