<?xml version="1.0" encoding="UTF-8"?>
<svg width="32px" height="32px" viewBox="0 0 32 32" version="1.1" xmlns="http://www.w3.org/2000/svg" xmlns:xlink="http://www.w3.org/1999/xlink">
    <title>cross</title>
    <g id="cross" stroke="none" stroke-width="1" fill="none" fill-rule="evenodd">
        <path d="M3.79289322,3.79289322 C4.15337718,3.43240926 4.72060824,3.40467972 5.11289944,3.70970461 L5.20710678,3.79289322 L28.2071068,26.7928932 C28.5976311,27.1834175 28.5976311,27.8165825 28.2071068,28.2071068 C27.8466228,28.5675907 27.2793918,28.5953203 26.8871006,28.2902954 L26.7928932,28.2071068 L3.79289322,5.20710678 C3.40236893,4.81658249 3.40236893,4.18341751 3.79289322,3.79289322 Z" id="Line-2" fill="#ffffff" fill-rule="nonzero"></path>
        <path d="M26.7928932,4.79289322 C27.1834175,4.40236893 27.8165825,4.40236893 28.2071068,4.79289322 C28.5675907,5.15337718 28.5953203,5.72060824 28.2902954,6.11289944 L28.2071068,6.20710678 L5.20710678,29.2071068 C4.81658249,29.5976311 4.18341751,29.5976311 3.79289322,29.2071068 C3.43240926,28.8466228 3.40467972,28.2793918 3.70970461,27.8871006 L3.79289322,27.7928932 L26.7928932,4.79289322 Z" id="Line-2-Copy" fill="#ffffff" fill-rule="nonzero"></path>
    </g>
</svg>