<?xml version="1.0" encoding="UTF-8"?>
<svg width="32px" height="32px" viewBox="0 0 32 32" version="1.1" xmlns="http://www.w3.org/2000/svg" xmlns:xlink="http://www.w3.org/1999/xlink">
    <title>information</title>
    <g id="information" stroke="none" stroke-width="1" fill="none" fill-rule="evenodd">
        <g id="cursor-information" transform="translate(3.000000, 3.000000)" fill="#000000" fill-rule="nonzero">
            <path d="M13,0 C20.1797017,0 26,5.82029825 26,13 C26,20.1797017 20.1797017,26 13,26 C5.82029825,26 0,20.1797017 0,13 C0,5.82029825 5.82029825,0 13,0 Z M13,0.894524927 C6.31433073,0.894524927 0.894524927,6.31433073 0.894524927,13 C0.894524927,19.6856693 6.31433073,25.1054751 13,25.1054751 C19.6856693,25.1054751 25.1054751,19.6856693 25.1054751,13 C25.1054751,6.31433073 19.6856693,0.894524927 13,0.894524927 Z M13,10.4606146 C13.21957,10.4606146 13.4021859,10.6188339 13.4400565,10.8274811 L13.4472625,10.9078771 L13.447,18.829 L15.0921229,18.8291063 C15.3391392,18.8291063 15.5393854,19.0529639 15.5393854,19.3291063 C15.5393854,19.5745662 15.3811661,19.7787147 15.1725189,19.8210506 L15.0921229,19.8291063 L10.9078771,19.8291063 C10.6608608,19.8291063 10.4606146,19.6052487 10.4606146,19.3291063 C10.4606146,19.0836464 10.6188339,18.8794979 10.8274811,18.837162 L10.9078771,18.8291063 L12.552,18.829 L12.5519738,11.3550994 L10.9078771,11.3551395 C10.6883071,11.3551395 10.5056912,11.1969203 10.4678206,10.9882731 L10.4606146,10.9078771 C10.4606146,10.6883071 10.6188339,10.5056912 10.8274811,10.4678206 L10.9078771,10.4606146 L13,10.4606146 Z M12.9774123,5.26808376 L13.0831364,5.27377731 C13.5692817,5.32645672 13.9477055,5.73822403 13.9477055,6.23837696 C13.9477055,6.77425509 13.5132904,7.20867015 12.9774123,7.20867015 C12.4415341,7.20867015 12.0071191,6.77425509 12.0071191,6.23837696 C12.0071191,5.73822403 12.3855429,5.32645672 12.8716881,5.27377731 L12.9774123,5.26808376 Z" id="Combined-Shape"></path>
        </g>
    </g>
</svg>